<svg width="448" height="360" xmlns="http://www.w3.org/2000/svg">

 <title width="0" height="0"/>
 <g id="imagebot_1" width="0" height="0">
  <g transform="translate(0.0315686 0.0163219)" id="imagebot_2" width="0" height="0">
   <path fill="#ffffff" id="imagebot_3" d="M5.47,360.33L88.72,360.33A5.47,5.47 0 1 0 88.72,349.4L84.53,349.4L124.06,225.94L134.83,238.89A5.46,5.46 0 0 0 143.24,231.89L126.1,211.29C126.04,211.22 125.97,211.17 125.91,211.11A6.33,6.33 0 0 0 125.32,210.54C125.21,210.45 125.09,210.38 124.97,210.3A6,6 0 0 0 124.37,209.93L123.92,209.73C123.8,209.73 123.69,209.62 123.56,209.58S123.39,209.58 123.3,209.52L122.82,209.42A5.23,5.23 0 0 0 122.14,209.35L121.9,209.35L121.69,209.35A5.51,5.51 0 0 0 120.98,209.43A2.84,2.84 0 0 0 120.56,209.51A5.78,5.78 0 0 0 119.86,209.75L119.49,209.89A8.65,8.65 0 0 0 118.73,210.36L118.54,210.48A5.17,5.17 0 0 0 117.72,211.28L117.72,211.28L1.26,351.37A5.47,5.47 0 0 0 5.47,360.37L5.47,360.33zM53.58,305.52L71.69,305.52A5.47,5.47 0 1 0 71.69,294.59L62.69,294.59L108.12,239.93L81.18,324L58.18,324A5.47,5.47 0 1 0 58.18,334.93L77.68,334.93L73.05,349.4L17.12,349.4z" width="0" height="0"/>
   <path fill="#ffffff" id="imagebot_4" d="M149.29,247.74A5.46,5.46 0 0 0 148.58,255.44L153.77,261.69A5.47,5.47 0 0 0 162.18,254.69L156.98,248.44A5.45,5.45 0 0 0 149.29,247.74z" width="0" height="0"/>
   <path fill="#ffffff" id="imagebot_5" d="M321.38,218.28A5.47,5.47 0 0 0 329.79,211.28L328.61,209.87A5.46,5.46 0 1 0 320.21,216.87L321.38,218.28z" width="0" height="0"/>
   <path fill="#ffffff" id="imagebot_6" d="M446.22,351.37L346,230.76A5.47,5.47 0 0 0 337.59,237.76L384.83,294.6L362,294.6A5.47,5.47 0 1 0 362,305.53L393.9,305.53L430.36,349.41L221.83,349.41L240.61,290.75A5.38,5.38 0 0 0 241.47,288.07L279.83,168.29L304.66,198.17A5.46,5.46 0 1 0 313.06,191.17L281.86,153.63L281.67,153.44A5.12,5.12 0 0 0 281.09,152.88L280.73,152.63A5.8,5.8 0 0 0 280.14,152.27A3.76,3.76 0 0 0 279.68,152.07C279.56,152.07 279.45,151.96 279.33,151.92L279.07,151.86L278.59,151.76A5.4,5.4 0 0 0 277.9,151.68L277.66,151.68L277.45,151.68A5.51,5.51 0 0 0 276.74,151.76A3.1,3.1 0 0 0 276.32,151.84A4,4 0 0 0 275.63,152.08A2.35,2.35 0 0 0 275.26,152.22A5.3,5.3 0 0 0 274.5,152.68C274.44,152.68 274.37,152.76 274.3,152.81A5.16,5.16 0 0 0 273.48,153.61L273.48,153.61L109.1,351.37A5.46,5.46 0 0 0 113.3,360.37L442,360.37A5.47,5.47 0 0 0 446.21,351.37L446.22,351.37zM171.63,293.23L185.44,293.23A5.47,5.47 0 0 0 185.44,282.3L180.72,282.3L198.05,261.46L226.3,261.46A5.47,5.47 0 0 0 226.3,250.53L207.13,250.53L226.3,227.46L238.3,227.46A5.47,5.47 0 0 0 238.3,216.53L235.41,216.53L263.89,182.26L231.89,282.26L208.37,282.26A5.47,5.47 0 1 0 208.37,293.19L228.37,293.19L222.37,312.01L171.12,312.01A5.47,5.47 0 1 0 171.12,322.94L218.81,322.94L210.35,349.36L125,349.36z" width="0" height="0"/>
   <path fill="#ffffff" id="imagebot_7" d="M243.48,326A5.47,5.47 0 0 0 248.95,331.46L286.22,331.46A5.47,5.47 0 0 0 286.22,320.53L249,320.53A5.47,5.47 0 0 0 243.48,326z" width="0" height="0"/>
   <path fill="#ffffff" id="imagebot_8" d="M335,305.52L339.24,305.52A5.47,5.47 0 1 0 339.24,294.59L335,294.59A5.47,5.47 0 0 0 335,305.52z" width="0" height="0"/>
   <path fill="#ffffff" id="imagebot_9" d="M273.94,256.08A5.47,5.47 0 0 0 273.94,245.14L270.13,245.14A5.47,5.47 0 0 0 270.13,256.08L273.94,256.08z" width="0" height="0"/>
   <path fill="#ffffff" id="imagebot_10" d="M291.21,250.61A5.46,5.46 0 0 0 296.67,256.08L318.83,256.08A5.47,5.47 0 0 0 318.83,245.14L296.67,245.14A5.46,5.46 0 0 0 291.21,250.61z" width="0" height="0"/>
   <path fill="#ffffff" id="imagebot_11" d="M184.83,31A48.6,48.6 0 1 0 218.89,46A48.22,48.22 0 0 0 184.83,31zM209.83,106.82A37.68,37.68 0 1 1 183.75,41.92L184.59,41.92A37.69,37.69 0 0 1 209.83,106.82z" width="0" height="0"/>
   <path fill="#ffffff" id="imagebot_12" d="M107.15,101.47A5.48,5.48 0 0 0 112.41,105.47A5.6,5.6 0 0 0 113.91,105.26A5.47,5.47 0 0 0 117.67,98.51A69.87,69.87 0 0 1 115.87,90.3A5.46,5.46 0 1 0 105.07,92A81.58,81.58 0 0 0 107.15,101.47z" width="0" height="0"/>
   <path fill="#ffffff" id="imagebot_13" d="M238.85,137.16A79,79 0 0 0 258.17,108.16A5.46,5.46 0 1 0 247.96,104.26A68.78,68.78 0 0 1 142.33,134.51A5.46,5.46 0 1 0 135.73,143.22A79.27,79.27 0 0 0 238.85,137.22L238.85,137.16z" width="0" height="0"/>
   <path fill="#ffffff" id="imagebot_14" d="M250.69,63.9A5.45,5.45 0 0 0 256,68.12A5.38,5.38 0 0 0 257.25,67.98A5.47,5.47 0 0 0 261.33,61.41A80.23,80.23 0 0 0 257.51,49.41A5.47,5.47 0 0 0 247.39,53.55A69.35,69.35 0 0 1 250.69,63.9z" width="0" height="0"/>
   <path fill="#ffffff" id="imagebot_15" d="M118.5,43.89A5.46,5.46 0 0 0 126.06,42.27A68.83,68.83 0 0 1 218.8,20.47A5.47,5.47 0 0 0 224.38,11.07A79.79,79.79 0 0 0 116.88,36.33A5.46,5.46 0 0 0 118.5,43.89z" width="0" height="0"/>
  </g>
  <title width="0" height="0">imagebot_1</title>
 </g>
</svg>