<svg id="Filled" height="512" viewBox="0 0 512 512" width="512" xmlns="http://www.w3.org/2000/svg"><path d="m88 24h256v368h-256z" fill="#cbbcae"/><path d="m56 24h256v368h-256z" fill="#e2d2c2"/><path d="m232 24h-208v368h256v-320z" fill="#fae8d8"/><path d="m232 24v48h48z" fill="#cbbcae"/><path d="m248 200h128v32h-128z" fill="#fcb442"/><path d="m56 56h112v128h-112z" fill="#a4d4f4"/><path d="m96 144h32a16 16 0 0 1 16 16v24a0 0 0 0 1 0 0h-64a0 0 0 0 1 0 0v-24a16 16 0 0 1 16-16z" fill="#2b70a8"/><path d="m208 200h24a0 0 0 0 1 0 0v40a0 0 0 0 1 0 0h-40a0 0 0 0 1 0 0v-24a16 16 0 0 1 16-16z" fill="#fcb442"/><path d="m392 200h24a16 16 0 0 1 16 16v24a0 0 0 0 1 0 0h-40a0 0 0 0 1 0 0v-40a0 0 0 0 1 0 0z" fill="#fcb442"/><path d="m152 232h320a16 16 0 0 1 16 16v240a0 0 0 0 1 0 0h-352a0 0 0 0 1 0 0v-240a16 16 0 0 1 16-16z" fill="#8a523a"/><path d="m168 336h288a0 0 0 0 1 0 0v104a16 16 0 0 1 -16 16h-256a16 16 0 0 1 -16-16v-104a0 0 0 0 1 0 0z" fill="#5d3727"/><path d="m296 360h32v24h-32z" fill="#dd9d3a"/><path d="m400 200v48h-32v-32a16 16 0 0 0 -16-16h-80a16 16 0 0 0 -16 16v32h-32v-48a32 32 0 0 1 32-32h112a32 32 0 0 1 32 32z" fill="#5d3727"/><path d="m152 232h320a16 16 0 0 1 16 16v112a0 0 0 0 1 0 0h-352a0 0 0 0 1 0 0v-112a16 16 0 0 1 16-16z" fill="#976048"/><path d="m288 328h48v32h-48z" fill="#fcb442"/><path d="m96 104h32a0 0 0 0 1 0 0v32a16 16 0 0 1 -16 16 16 16 0 0 1 -16-16v-32a0 0 0 0 1 0 0z" fill="#f5cbaa"/><path d="m104 88h32a0 0 0 0 1 0 0v16a16 16 0 0 1 -16 16h-16a16 16 0 0 1 -16-16 16 16 0 0 1 16-16z" fill="#976048"/><path d="m24 400h104v88a8 8 0 0 0 8 8h352a8 8 0 0 0 8-8v-240a24.028 24.028 0 0 0 -24-24h-32v-8a24.027 24.027 0 0 0 -24-24h-8.8a40.067 40.067 0 0 0 -39.2-32h-16v-136a8 8 0 0 0 -8-8h-320a8 8 0 0 0 -8 8v368a8 8 0 0 0 8 8zm120 80v-112h16v72a24.027 24.027 0 0 0 24 24h256a24.027 24.027 0 0 0 24-24v-72h16v112zm160-112h16v8h-16zm24-16h-32v-16h32zm-40 16v16a8 8 0 0 0 8 8h32a8 8 0 0 0 8-8v-16h112v72a8.009 8.009 0 0 1 -8 8h-256a8.009 8.009 0 0 1 -8-8v-72zm192-120v104h-136v-24a8 8 0 0 0 -8-8h-48a8 8 0 0 0 -8 8v24h-136v-104a8.009 8.009 0 0 1 8-8h320a8.009 8.009 0 0 1 8 8zm-264-24h-16v-8a8.009 8.009 0 0 1 8-8h8zm144 0h-96v-8a8.009 8.009 0 0 1 8-8h80a8.009 8.009 0 0 1 8 8zm64-8v8h-16v-16h8a8.009 8.009 0 0 1 8 8zm-32-16v24h-16v-8a24.028 24.028 0 0 0 -24-24h-80a24.028 24.028 0 0 0 -24 24v8h-16v-24a24.028 24.028 0 0 1 24-24h112a24.028 24.028 0 0 1 24 24zm-56-40h-16v-128h16zm-32 0h-16v-88h-.02a8.008 8.008 0 0 0 -2.32-5.66l-34.34-34.34h52.68zm-64-116.687 20.687 20.687h-20.687zm-208-11.313h192v40a8 8 0 0 0 8 8h40v80h-16a40.067 40.067 0 0 0 -39.195 32h-8.805a24.027 24.027 0 0 0 -24 24v8h-32a24.039 24.039 0 0 0 -22.624 16h-73.376a8 8 0 0 0 0 16h72v16h-72a8 8 0 0 0 0 16h72v16h-72a8 8 0 0 0 0 16h72v16h-72a8 8 0 0 0 0 16h72v32h-96z"/><path d="m56 192h112a8 8 0 0 0 8-8v-128a8 8 0 0 0 -8-8h-112a8 8 0 0 0 -8 8v128a8 8 0 0 0 8 8zm72-88a8.009 8.009 0 0 1 -8 8h-16a8 8 0 0 1 0-16h24zm-8 24v8a8 8 0 0 1 -16 0v-8zm-24 32a7.975 7.975 0 0 1 1.619-4.8 23.951 23.951 0 0 0 28.762 0 7.975 7.975 0 0 1 1.619 4.8v16h-32zm-32-96h96v112h-16v-16a24.021 24.021 0 0 0 -8.659-18.432 23.939 23.939 0 0 0 .659-5.568v-14.131a23.941 23.941 0 0 0 8-17.869v-16a8 8 0 0 0 -8-8h-32a23.986 23.986 0 0 0 -16 41.869v14.131a23.939 23.939 0 0 0 .659 5.568 24.021 24.021 0 0 0 -8.659 18.432v16h-16z"/><path d="m200 112h48a8 8 0 0 0 0-16h-48a8 8 0 0 0 0 16z"/><path d="m200 144h48a8 8 0 0 0 0-16h-48a8 8 0 0 0 0 16z"/><path d="m56 224h48a8 8 0 0 0 0-16h-48a8 8 0 0 0 0 16z"/></svg>