<svg id="_x33_0" enable-background="new 0 0 64 64" height="512" viewBox="0 0 64 64" width="512" xmlns="http://www.w3.org/2000/svg"><g><g><g><path d="m34.56 16.28-3.32 8.72-3.16 8.29c-1.27.46-2.65.71-4.08.71-6.63 0-12-5.37-12-12s5.37-12 12-12c4.56 0 8.52 2.54 10.55 6.28z" fill="#fcd770"/></g><g><path d="m51.66 41.24c-.17-.12-.34-.26-.49-.41-.72-.73-1.17-1.73-1.17-2.83 0-1.66.67-3.16 1.76-4.24 1.08-1.09 2.58-1.76 4.24-1.76.52 0 1.02.07 1.5.19 1.06.27 2 .82 2.74 1.57 1.09 1.08 1.76 2.58 1.76 4.24 0 3.04-1.23 5.78-3.22 7.78-2 1.99-4.74 3.22-7.78 3.22h-.58c-.94 0-1.88-.12-2.8-.36l-2.32-.62c.45-1.11.7-2.33.7-3.61v-.4c0-.35-.03-.7-.09-1.03.19.01.38.02.56.02 1.89 0 3.71-.62 5.19-1.76z" fill="#69d6f4"/></g><g><path d="m63 37.99v24.01h-53-7l3.94-4.33c1.93-2.13 4.26-3.79 6.83-4.93s5.37-1.74 8.24-1.74c1.98 0 3.95.29 5.85.86l5.79 1.74c.9.26 1.82.4 2.76.4 4.02 0 7.46-2.47 8.89-5.98l2.32.62c.92.24 1.86.36 2.8.36h.58c3.04 0 5.78-1.23 7.78-3.22 1.99-2 3.22-4.74 3.22-7.78z" fill="#69d6f4"/></g><g><path d="m45.91 42.98c-.21-1.25-.81-2.36-1.67-3.22-1.09-1.09-2.59-1.76-4.25-1.76-1.64 0-3.12.66-4.21 1.72-3.07-1-6.27-1.57-9.5-1.69-.45-.02-.9-.03-1.35-.03-2.69 0-5.34.31-7.93.91-3.68.85-7.21 2.29-10.45 4.29l-4.55 2.8-1 1v15h2l3.94-4.33c1.93-2.13 4.26-3.79 6.83-4.93s5.37-1.74 8.24-1.74c1.98 0 3.95.29 5.85.86l5.79 1.74c.9.26 1.82.4 2.76.4 4.02 0 7.46-2.47 8.89-5.98.45-1.11.7-2.33.7-3.61v-.4c0-.35-.03-.7-.09-1.03z" fill="#69d6f4"/></g><g><path d="m54.4 24.04 3.1 8.15c-.48-.12-.98-.19-1.5-.19-1.66 0-3.16.67-4.24 1.76-1.09 1.08-1.76 2.58-1.76 4.24 0 1.1.45 2.1 1.17 2.83.15.15.32.29.49.41-1.48 1.14-3.3 1.76-5.19 1.76-.18 0-.37-.01-.56-.02-.21-1.25-.81-2.36-1.67-3.22-1.09-1.09-2.59-1.76-4.25-1.76-1.64 0-3.12.66-4.21 1.72-3.07-1-6.27-1.57-9.5-1.69l1.8-4.74 3.16-8.29h.5c1.4 0 2.7-.74 3.43-1.94l1.46-2.44c.23-.38.64-.62 1.09-.62.71 0 1.28.57 1.28 1.28v10.72c0 1.1.9 2 2 2 .55 0 1.05-.22 1.41-.59.37-.36.59-.86.59-1.41v-6.84c0-.64.52-1.16 1.16-1.16.5 0 .95.32 1.1.79l1.48 4.42c.15.47.6.79 1.1.79.64 0 1.16-.52 1.16-1.16v-5.27c0-.87.7-1.57 1.57-1.57.28 0 .56.08.8.22z" fill="#cf9e76"/></g><g><path d="m46.74 3.93 7.66 20.11-3.03-1.82c-.24-.14-.52-.22-.8-.22-.87 0-1.57.7-1.57 1.57v5.27c0 .64-.52 1.16-1.16 1.16-.5 0-.95-.32-1.1-.79l-1.48-4.42c-.15-.47-.6-.79-1.1-.79-.64 0-1.16.52-1.16 1.16v6.84c0 .55-.22 1.05-.59 1.41-.36.37-.86.59-1.41.59-1.1 0-2-.9-2-2v-10.72c0-.71-.57-1.28-1.28-1.28-.45 0-.86.24-1.09.62l-1.46 2.44c-.73 1.2-2.03 1.94-3.43 1.94h-.5l3.32-8.72 4.7-12.35c.45-1.16 1.56-1.93 2.81-1.93h1.86c1.25 0 2.36.77 2.81 1.93z" fill="#b4dd7f"/></g></g><g><path d="m24.485 57c1.604 0 3.214.159 4.784.474l2.419.484c7.292 1.458 14.911 1.377 22.174-.236l3.354-.746-.434-1.952-3.354.746c-6.992 1.553-14.326 1.631-21.348.227l-2.419-.484c-1.7-.34-3.441-.513-5.177-.513-5.593 0-10.849 2.136-14.869 6h-4.354l2.418-2.66c3.662-4.029 8.885-6.34 14.33-6.34h.002c1.886 0 3.758.275 5.565.817l5.788 1.736c.988.297 2.012.447 3.043.447 4.114 0 7.679-2.362 9.433-5.797l1.529.402c.995.262 2.023.395 3.054.395h.575.001c3.205 0 6.219-1.248 8.485-3.515 2.268-2.267 3.516-5.28 3.516-8.486 0-1.87-.728-3.627-2.05-4.949-.769-.769-1.688-1.33-2.688-1.67l-10.591-27.804c-.587-1.541-2.09-2.576-3.738-2.576h-1.865c-1.648 0-3.151 1.035-3.738 2.576l-4.01 10.525c-2.44-3.184-6.234-5.101-10.32-5.101-7.168 0-13 5.832-13 13s5.832 13 13 13c.828 0 1.646-.084 2.449-.238l-.863 2.264c-.22-.004-.439-.026-.66-.026-2.122 0-4.225.207-6.295.574l.552-1.334-1.848-.766-1.078 2.603c-3.594.89-7.05 2.312-10.235 4.273l-4.547 2.798 1.049 1.703 4.547-2.798c5.371-3.305 11.546-5.053 17.855-5.053 3.101 0 6.167.446 9.147 1.278-.652 1.032-1.042 2.241-1.076 3.54-2.519-.532-5.089-.818-7.665-.818-8.28 0-16.196 2.574-22.893 7.444l-1.027.747 1.176 1.617 1.027-.747c6.353-4.619 13.862-7.061 21.717-7.061 2.713 0 5.419.327 8.058.95.247.58.599 1.115 1.057 1.575.947.951 2.208 1.475 3.551 1.475h.002c1.654 0 3-1.346 3-3 0-.802-.313-1.556-.88-2.123-.566-.566-1.319-.877-2.12-.877-.001 0-.002 0-.002 0h-.999l.002 2h.998.001c.267 0 .518.104.707.292.189.189.293.44.293.708 0 .552-.449 1-1 1.001-.001 0-.001 0-.002 0-.807 0-1.564-.315-2.133-.886-.569-.572-.881-1.331-.877-2.138.012-2.744 2.254-4.977 5.005-4.977h.002c1.337 0 2.593.521 3.538 1.466.946.945 1.467 2.202 1.467 3.54v.402c0 4.738-3.854 8.592-8.593 8.592-.837 0-1.667-.122-2.469-.363l-5.788-1.736c-1.993-.598-4.059-.901-6.139-.901-.001 0-.001 0-.002 0-6.007 0-11.77 2.549-15.811 6.994l-3.641 4.006h-1.557v2h62v-2h-50.312c3.377-2.583 7.474-4 11.797-4zm36.515-19.001c0 2.671-1.04 5.183-2.93 7.072-1.888 1.889-4.4 2.929-7.071 2.929h-.001-.575c-.859 0-1.715-.111-2.545-.33l-1.297-.341c.267-.929.419-1.907.419-2.921v-.402c0-.009-.001-.018-.001-.027 1.677-.094 3.315-.633 4.716-1.557.701.363 1.473.576 2.285.576h.002c1.653 0 2.998-1.346 2.998-3 0-.802-.313-1.555-.879-2.122-.566-.565-1.319-.876-2.12-.876-.001 0-.002 0-.003 0h-.998v2h1 .001c.267 0 .518.104.706.292.189.188.293.439.293.707 0 .551-.448.999-.998 1-.808.019-1.556-.312-2.123-.878-.567-.568-.879-1.321-.879-2.122 0-2.756 2.242-4.999 5.001-4.999h.001c1.335 0 2.59.52 3.534 1.464s1.464 2.199 1.464 3.535zm-20.802-33.711c.294-.77 1.045-1.288 1.869-1.288h1.865c.824 0 1.575.518 1.869 1.288l6.63 17.404-.545-.327c-.398-.239-.855-.365-1.32-.365-1.415 0-2.566 1.151-2.566 2.566v5.271c0 .16-.265.203-.316.051l-1.471-4.41c-.294-.884-1.119-1.478-2.051-1.478-1.192 0-2.162.97-2.162 2.162v6.838c0 .551-.448 1-1 1s-1-.449-1-1v-10.723c0-1.256-1.021-2.277-2.277-2.277-.796 0-1.544.424-1.952 1.105l-1.463 2.438c-.354.59-.909 1.012-1.539 1.247zm-16.198 28.712c-6.065 0-11-4.935-11-11s4.935-11 11-11c3.894 0 7.464 2.065 9.445 5.398l-6.127 16.082c-1.07.339-2.182.52-3.318.52zm20.947 6.051c-1.322-1.322-3.081-2.051-4.959-2.051-.001 0-.001 0-.002 0-1.691 0-3.246.607-4.458 1.613-2.555-.787-5.176-1.3-7.833-1.504l4.237-11.122c1.671-.067 3.226-.974 4.09-2.414l1.463-2.439c.128-.214.515-.107.515.143v10.723c0 1.654 1.346 3 3 3s3-1.346 3-3v-6.838c.001-.16.266-.203.316-.051l1.471 4.41c.294.885 1.119 1.479 2.051 1.479 1.192 0 2.162-.97 2.162-2.162v-5.271c0-.415.502-.699.857-.486l2.726 1.635 2.394 6.285c-3.848.012-6.977 3.146-6.977 6.998 0 1.132.393 2.193 1.082 3.069-1.036.564-2.199.887-3.375.926-.328-1.1-.925-2.109-1.76-2.943z"/><path d="m50.485 52.639-.933.466.895 1.789.933-.466c3.177-1.588 6.733-2.428 10.286-2.428h1.334v-2h-1.334c-3.861 0-7.728.913-11.181 2.639z"/><path d="m1 21h8v2h-8z"/><path d="m6.565 34.435h8.001v2h-8.001z" transform="matrix(.707 -.707 .707 .707 -21.962 17.849)"/><path d="m23 1h2v6h-2z"/><path d="m9.565 4.565h2v8.001h-2z" transform="matrix(.707 -.707 .707 .707 -2.962 9.979)"/><path d="m6.294 27.506h4v2h-4z" transform="matrix(.924 -.383 .383 .924 -10.281 5.346)"/><path d="m28.506 5.294h4v2h-4z" transform="matrix(.383 -.924 .924 .383 13.013 32.066)"/><path d="m16.495 4.294h2v4h-2z" transform="matrix(.924 -.383 .383 .924 -1.077 7.172)"/><path d="m7.294 13.494h2v4h-2z" transform="matrix(.383 -.924 .924 .383 -9.195 17.227)"/></g></g></svg>